<svg xmlns="http://www.w3.org/2000/svg" version="1.1" xmlns:xlink="http://www.w3.org/1999/xlink" xmlns:svgjs="http://svgjs.dev/svgjs" viewBox="0 0 800 800"><defs><linearGradient x1="50%" y1="0%" x2="50%" y2="100%" id="ssscribble-grad"><stop stop-color="hsl(206, 75%, 49%)" stop-opacity="1" offset="0%"></stop><stop stop-color="hsl(331, 90%, 56%)" stop-opacity="1" offset="100%"></stop></linearGradient></defs><g fill="none" stroke-width="1.5" stroke="url(#ssscribble-grad)" stroke-linecap="round"><path d="M1027.26 626.98C879.39 659.84 729.49 691.5 644.53 719.87 656.47 745.9 749.43 764.32 874.06 771.13 985.53 770.96 1033.98 755.04 1008.41 722.6 919.7 685.89 795.09 639.61 668.51 592.77 556.59 563.1 480.2 553.37 439.13 574.83 429.1 632.46 438.6 722.83 453.48 835.13 484.67 994.78 484.48 1053.73 443.69 914.04 410.83 795.68 362.52 697.83 300.31 643.48 238.18 643.64 163.72 690.84 82.92 766.82 11.1 857.68 -52.51 935.07 -93.13 983.53 -102.71 1000.92 -73.5 980.55 -4.64 930.34 78.86 856.99 164.5 771.7 219 685.49 210.35 597.82 132.43 519.49 -3.11 452.93 -151.83 391.34 -263.49 339.97 -288.11 296.82 -215.84 255.74 -72.6 219.22 75.26 186.36 149.16 153.5 118.4 125.85 6.55 104.95 -189.17 81.93 -144.17 104.07 57.39 153.21 182.38 188.77 260.29 226.88 286.23 257.17 264.22 264.32 214.75 245.74 159.91 194.13 101.51 111.46 62.37 4.61 45.83 -110.33 40.79 -210.4 54.1 -276.31 78.94 -289.16 108.05 -247.51 140.88 -156.33 173.74 -37.98 206.6 69.93 237.94 140.17 270.8 158.29 307.93 121.47 354.41 46.9 416.38 -42.01 489.87 -130.23 583.13 -191.14 692.18 -214.56 797.67 -201.81 894.31 -153.13 959.39 -80.4 976.52 9.5 937.57 102.95 846.8 190.32 740.63 273.41 647.72 343.44 611.81 400.57 660.04 450.7 782.84 492.06 939.2 528.01 1063.73 561.61 1101.16 594.12 1027.26 626.98Q1027.26 626.98 1027.26 626.98" opacity="0.27"></path><path d="M993.26 592.73C856.97 623.24 714.19 646.82 620.86 662.48 607.86 676.58 671.24 680.13 777.65 671.59 893.58 659.81 972.19 635.61 992.96 601.28 955.83 569.95 870.42 537.58 761.66 512.99 643.76 508.97 540.63 527.23 461.79 573.95 404.84 648.02 371.56 744.72 353.28 851.97 346.2 988.85 321.25 1013.26 282.23 880.04 251.72 769.78 209.16 675.38 157.75 616.31 108.84 603.07 56.65 632.28 9.19 691.5 -25.4 771.45 -42.36 848.73 -32.44 908.5 -0.64 948.09 58.68 956.54 136.59 936.62 205.36 893.6 254.58 832.9 259.94 763.85 207.4 687.19 101.42 612.82 -36.86 545.51 -165.64 479.05 -246.39 421.65 -245.17 373.81 -163.61 327.01 -27.02 288.22 109.26 257.7 181.4 227.19 163.53 206.4 70.96 195.65 -60.97 185.94 -173.67 187.83 -227.59 201.4 -210.7 215.84 -127.39 239.96 -7.53 269.59 122.81 291.61 231.19 308.51 302.17 311.55 333.22 291.47 328.84 246.86 303.9 175.5 261.13 83.96 220.81 -20.67 192.24 -123 165.76 -204.59 155.88 -251.17 161.6 -249.72 169.77 -202.43 189.83 -114.24 220.34 -3.98 250.86 97.25 290.38 167.44 339.75 193.84 391.57 172.26 456.97 114.33 536.33 37.47 617.78 -47.4 708.35 -116.74 798.15 -159.05 870.11 -174 918.3 -156.09 927.25 -112.09 896.25 -47.5 824.06 28.66 725.48 107.02 637.39 188.37 581.45 262.83 586.93 327.49 663.21 388.91 793.28 440.88 937 484.32 1041.34 526.21 1065.4 562.22 993.26 592.73Q993.26 592.73 993.26 592.73" opacity="0.67"></path><path d="M959.26 501.96C834.49 530.12 700.15 548.18 601.88 556.24 567.75 563.73 601.74 560.5 683.7 547.17 791.01 534.17 884.2 513.53 939.39 489.29 950.64 472.77 913.4 461.57 841.68 462.84 745.62 483.97 644.48 526.04 551.92 591.01 467.03 673.85 400.48 769.7 350.69 866.76 311.33 949.93 281.8 1007.32 256.5 1026.04 234.34 1003.85 210.4 940.38 182.23 846.04 154.06 743.97 123.01 653.85 92.04 591.78 64.22 567.29 42.52 579.78 33.06 621.44 34.04 686.73 54.21 757.33 95.68 820.24 144.83 873.22 205.54 903.34 264.68 909.63 299.49 896.47 303.33 863.86 262.75 818.49 178.23 762.52 59.79 702.76 -68.17 644.72 -170.77 584.3 -220.79 529.71 -197.53 483.28 -110.13 436.84 18.5 398.95 143.26 370.78 213.06 342.61 206.6 325.5 133.05 318.82 16.47 312.13 -96.99 315.47 -171.71 327.08 -192.61 336.3 -151.75 349.68 -65.53 362.25 48.48 364.21 163.69 356.39 260.79 332.64 334.17 289.44 376.27 225.92 392.9 143.63 387.25 51.39 371.08 -44.47 354.57 -130.4 332.38 -192.71 319.37 -221.24 319.18 -207.63 318.98 -156.45 332.54 -72.04 360.71 30.01 388.87 124.37 430.31 193.55 483.64 226.62 536.95 218.79 601.19 177.43 672.2 114.91 737.52 38.49 800.07 -32.09 849.13 -85.61 875.92 -121.25 874.26 -129.94 837.79 -114.15 777.6 -78.5 695.79 -26.86 611.1 33.05 554.21 100.71 538.61 167.73 580.15 229.54 675.52 291.68 805.02 346.16 932.48 391.79 1016.89 436.85 1029.06 473.79 959.26 501.96Q959.26 501.96 959.26 501.96" opacity="0.79"></path><path d="M925.26 381.28C811.96 407.1 687.18 422.78 587.28 429.14 536.4 435.79 543.12 433.97 597.3 425.65 685.65 420.11 778.05 411.96 851.96 405.5 899.74 408.57 907.96 420.53 880.81 446.19 824.72 488.01 750.12 546.92 669.78 621.82 584.3 705.74 506.68 794.44 440.95 877.44 379.63 943.34 330.01 983.61 290.36 989.44 252.88 961.33 221.7 899.31 195.88 812.04 170.06 718.26 150.83 633.16 139.61 569.79 130.57 536.34 133.22 534 149.79 558.38 170.78 606.75 205.88 665.59 251.57 724.34 292.11 781.63 329.64 824.55 351.89 849.81 345.2 861.35 306.38 854.96 231.7 834.43 130.91 803.35 15.35 764.39 -91.91 722.44 -165.02 676.38 -186.43 632.02 -145.51 592.44 -55.57 552.11 63.96 518.23 177.26 492.41 244.14 466.59 247.52 450.04 192.22 441.68 93.51 432.57 -13.76 429.96 -99.75 431.28 -149.75 428.48 -148.65 424.92 -102.13 416.21 -20.24 396.95 79.62 366.28 179.56 320.9 273.61 261.81 348.2 188.28 401.45 104.1 436.85 18.47 456.1 -63.52 466.3 -130.81 467.58 -174.13 469.07 -186.49 476.02 -163.02 481.2 -109.62 495.71 -29.76 521.52 64 547.34 151.28 583.26 218.54 626.77 256.64 668.51 260.77 713.99 235.2 757.46 188.24 792 124.16 815.27 58.61 819.67 1.58 806.21 -46.43 768.69 -74.73 708.48 -82.71 642.38 -74.54 573.12 -49.43 518.12 -12.71 498.48 33.54 520.54 84.21 589.47 134.49 694.37 187.56 816.35 236.35 925.02 278.39 990.29 320.72 992.14 355.46 925.26 381.28Q925.26 381.28 925.26 381.28" opacity="0.41"></path><path d="M891.23 266.1C789.29 289.57 675.04 305.55 576.63 315.07 513.75 325.4 496.94 330.97 523.03 334.11 585.71 341.05 664.39 349.55 740.67 363.09 807.98 385.43 849.37 417.59 862.18 461.96 850.41 517.26 815.28 584.54 765.53 660.88 703.47 738.99 638.74 815.61 577.85 882.1 515.37 930.59 461.14 955.15 417.02 950.13 373.41 917.75 339.48 858.06 316.01 778.05 292.54 692.64 280.63 613.26 279.98 550.2 279.83 510.21 291.36 495.39 313.16 503.79 333.38 534.52 359.45 578.28 385.34 627.11 398.92 680.56 400.35 727.11 381.34 762.46 337.78 790.34 268.56 803.97 176.81 804.58 76.09 796.89 -23.64 779.55 -103.52 755.98 -146.82 728.12 -143.37 698.05 -89.54 668.63 -0.19 638.14 109.29 610.43 211.23 586.95 274.64 563.48 286.22 545.36 247.89 531.59 168.46 516.74 73.02 504.11 -14.99 491.3 -83.44 474.19 -114.43 452.88 -106.4 424.39 -64.11 387.6 4.66 340.27 86.54 281.63 176.5 215.51 260.9 141.13 333.34 63.24 397.11 -10.01 446.37 -74.82 483.52 -122.76 513.15 -148.36 536.3 -146.9 556.94 -115.97 575.39 -61.98 595.51 12.64 618.98 98.05 642.45 178.06 668.17 242.51 693.98 283.95 717.61 298.02 737.16 286.82 748.22 255.54 751.74 206.25 741.14 150.68 713.55 97 677.3 45.1 626.59 5.66 567.39 -18.86 495.8 -31.7 499.88 20.6 611.54 69.41 716.75 106.96 825.56 144.08 914.06 178.02 961.46 212.77 954.66 242.62 891.26 266.09Q891.23 266.1 891.23 266.1" opacity="0.59"></path><path d="M857.63 190.06C767.04 211.19 664.09 228.95 569.9 244.11 499.69 260.22 464.08 275.56 464.23 292 498.4 311.97 554.37 336.16 618.96 366.71 687.85 403.67 744.92 449.36 783.98 504.12 807.98 564.45 811.2 631.55 797.49 701.78 770.89 768.71 734.71 829.97 694.82 878.98 649.96 910.94 607.17 921.74 570.03 908.06 532.03 873.05 501.62 816.53 480.5 743.94 459.37 666.97 448.53 593.93 446.69 532.73 446.18 476.33 460.58 486.09 455.32 534.87 436.47 578.16 402.92 620.26 351.24 656.88 284.48 691.48 202.37 716.39 111.48 731.03 24.9 740.64 -50.01 740.9 -99.66 733.51 -115.3 722.78 -91.72 707.07 -29.66 688.32 56.37 668.59 155.04 647.67 245.63 626.55 304.8 605.42 322.6 585.09 299.27 564.98 239.19 543.89 159.54 521.18 77.56 495.3 1.91 466.08 -50.08 431.04 -73.02 388.87 -68.78 341.67 -37.31 286.43 13.39 224.15 79.41 159.84 151.06 92.69 220.83 27.41 291.06 -29.73 352.94 -75.95 404.85 -105.31 453.26 -115.35 492.88 -102.79 524.97 -66.84 555.59 -13.81 581.22 54.93 602.34 131.9 623.47 204.5 639.09 265.31 648.31 308.48 656.06 330.33 654.87 331.55 643.07 315.08 627.77 281.55 600.68 239.24 563 194.31 525.79 146.07 484.47 104.02 446.14 71.37 423.12 44.3 416.7 28.94 434.45 24.54 479.38 26.55 550.34 37.14 641.47 53.78 738.93 73.95 830.61 97.04 898.84 120.77 930.32 145.45 916.8 168.94 857.63 190.06Q857.63 190.06 857.63 190.06" opacity="0.70"></path><path d="M823.22 175.79C743.59 194.57 652.48 214.09 565.16 234.65 492.67 255.97 444.41 279.71 423.61 306.85 430.92 336.44 460.46 371.29 504.05 412.08 559.57 456.34 614.36 507.03 661.66 563.15 704.03 620.42 732.5 680.02 746.96 738.41 752.65 790.68 746.83 835.14 732.86 867.13 713.82 884.29 691.13 883.73 667.93 863.65 643.42 827.6 620.99 775.03 602.21 710.01 583.44 641.53 569.19 575.4 558.3 517.49 546.08 471.65 534.61 440.23 521.11 423.73 502.53 422.77 477.44 434.01 442.8 453.96 399.4 483.2 343.97 514.94 276.99 545.51 205.08 577.92 128.03 605.02 52.96 625.2 -33.37 648.94 -51.8 656.8 32.22 644.35 112.28 633.62 199.59 618.68 279.22 599.9 333.99 581.12 356.75 559.4 346.74 534.72 305.53 509.39 244.17 479.95 174.45 445.91 101.63 410.01 40.44 368.35 -2.47 321.04 -28.02 271.92 -31.09 217.87 -14.9 160.84 17.11 105.66 60.91 51.66 110.38 2.86 166.04 -36.63 220.52 -64.71 270.17 -77.51 320.35 -74.77 363.65 -54.04 398.87 -15.45 433.77 35.21 460.96 97.53 479.74 166.01 498.52 231.03 508 287.41 508.53 330.7 508.72 358.02 499.58 369.28 481.94 365.88 464.84 347.65 441.28 320.03 414.56 287.31 394.03 248.48 377.18 211.14 369.76 178.48 378.17 146.97 403.51 123.24 448.6 107.91 511.06 96.06 589.09 92.14 675.68 95.09 759.15 100.49 831.21 110.91 879.68 125.01 896.95 139.86 878.01 157 823.25 175.78Q823.22 175.79 823.22 175.79" opacity="0.42"></path><path d="M789.25 227.16C641.38 260.02 491.14 308.1 401.51 371.33 392.7 439.12 446.99 526.7 520.43 626.4 604.17 719.15 655.68 800.65 669.93 845.33 672.11 843.16 651.76 783.93 618.89 676 586.03 557.65 543.77 458.31 484.65 399.06 413.45 385.44 310.66 406.12 183.85 440.95 67.33 490.99 -21.8 528.57 -37.07 543.75 28.46 557.01 165.38 547.38 313.25 514.52 387.15 481.66 361.76 428.68 268.74 358.47 143.05 286.34 50.83 197.47 16.55 104.36 28.57 26.46 82.15 -29.06 146.65 -39.53 222.1 -4.36 282.94 81.65 315.8 200 349.55 344.21 323.23 362.82 353.13 289.81 430.48 233.19 557.56 196.89 707.34 186.05 824.44 179.77 863.15 194.3 789.25 227.16Q789.25 227.16 789.25 227.16" opacity="0.92"></path><path d="M755.23 329.2C630.46 357.37 496.2 404.33 397.31 466.11 350.85 528.26 356.81 603.38 392.04 681 451.45 746.59 501.79 796.3 527.95 813.28 551.67 795.81 549.52 736.39 521.35 642.05 493.19 539.98 441.67 448.83 369.14 384.4 294.16 351.12 199.87 345.16 103.54 355.29 31.39 382.05 -4.43 406.14 21.38 417.05 99.61 429.67 222.46 423.69 347.23 395.52 417.05 367.36 414.63 319.68 355.86 258.24 257.54 198.52 165.41 130.47 105.48 66.8 69.42 19.75 70.85 -4.17 94.79 8.46 130.05 52.23 167.57 131.95 195.73 234.01 223.91 328.36 240.05 399.21 253.6 437.34 278.47 441 320.99 421.18 393.96 392.5 490.8 351.8 612.8 320.63 731.77 307.29 811.2 294.32 825.06 301.03 755.26 329.19Q755.23 329.2 755.23 329.2" opacity="0.76"></path><path d="M721.23 452.02C619.29 475.49 505.31 514.63 408.79 564.23 340.7 611.94 308.63 665.47 304.25 715.32 323.78 753.21 348.67 775.03 364.27 771 383.42 744.12 383.93 688.06 360.46 608.05 336.99 522.64 291.76 442.58 231.93 378.98 175.65 334.32 114.13 308.85 63.83 297.71 37.46 300.19 44.63 305.58 95.51 305.95 174.82 309.39 279.29 301.33 381.23 277.86 444.64 254.39 459.04 217.72 431.11 173.61 367.06 132.57 294.65 90.54 234.52 57.3 179.4 37.67 149.73 38.24 143.7 65.69 144.29 112.08 158.84 182.61 182.31 268.01 205.78 348.03 235.95 413.62 276.03 457.72 322.73 478.95 389.03 482.03 474.91 474.9 565.8 455.82 663.12 438.92 744.37 431.88 789.52 422.96 784.66 428.54 721.26 452.01Q721.23 452.02 721.23 452.02" opacity="0.09"></path><path d="M687.41 559.53C607.83 578.31 517.02 605.8 432.62 637.79 359.7 667.51 306.9 697.26 274.17 720.61 257.23 735.14 250.64 736.15 245.96 718.95 245.89 688.49 238.82 639.01 220.04 574 201.26 505.51 172.55 438.95 140.08 381.56 112.22 334.01 89.5 298.17 81.83 273.12 89.96 256.82 122.84 245.46 182 234.85 252.63 226.91 335.83 214.75 415.41 195.97 470.1 177.19 494.59 153.58 490.85 128.97 460.34 107.05 417.5 89.1 375.41 80.78 328.22 81.22 293.9 97.15 277.2 130.93 262.06 174.56 263.51 233.51 282.29 302 301.06 367.01 335.39 424.11 383.08 468.33 432.32 499.29 495.95 518.19 567.74 528.27 634.44 529.54 697.2 529.09 741.47 531.92 758.97 532.46 742.1 540.75 687.41 559.53Q687.41 559.53 687.41 559.53" opacity="0.50"></path><path d="M653.23 620.34C528.46 648.5 394.4 680.27 303.27 692.66 238.96 685.65 201.93 634.39 173.77 540.05 145.6 437.97 131.63 344.82 159.02 281.73 213.23 235.39 324.46 202.16 449.23 174 519.05 145.83 524.52 128.05 497.58 137.48 443.68 163.66 415.83 233.97 444 336.05 472.16 430.39 551.01 504.48 641.83 548.41 705.69 572.93 723.05 592.17 653.23 620.34Q653.23 620.34 653.23 620.34" opacity="0.67"></path><path d="M619.26 616.47C448.23 654.03 282.99 626.67 245.44 506.04 207.88 371.84 312.23 255.8 483.26 218.24 558.92 180.69 544.94 235.84 582.5 370.04 620.05 490.67 694.92 578.92 619.26 616.47Q619.26 616.47 619.26 616.47" opacity="0.62"></path></g></svg>